<svg width="24" height="24" viewBox="0 0 24 24" fill="none" xmlns="http://www.w3.org/2000/svg">
<g id="24px/help-3">
<path id="Union" fill-rule="evenodd" clip-rule="evenodd" d="M12 20.5C16.6944 20.5 20.5 16.6944 20.5 12C20.5 7.30558 16.6944 3.5 12 3.5C7.30558 3.5 3.5 7.30558 3.5 12C3.5 16.6944 7.30558 20.5 12 20.5ZM12 22C17.5228 22 22 17.5228 22 12C22 6.47715 17.5228 2 12 2C6.47715 2 2 6.47715 2 12C2 17.5228 6.47715 22 12 22ZM12 9.25C12.4142 9.25 12.75 9.58579 12.75 10V17C12.75 17.4142 12.4142 17.75 12 17.75C11.5858 17.75 11.25 17.4142 11.25 17V10C11.25 9.58579 11.5858 9.25 12 9.25ZM12.75 7.19995C12.75 6.78574 12.4142 6.44995 12 6.44995C11.5858 6.44995 11.25 6.78574 11.25 7.19995V7.69995C11.25 8.11416 11.5858 8.44995 12 8.44995C12.4142 8.44995 12.75 8.11416 12.75 7.69995V7.19995Z" fill="#1F2229"/>
</g>
</svg>
